<?xml version="1.0" ?><!DOCTYPE svg  PUBLIC '-//W3C//DTD SVG 1.1//EN'  'http://www.w3.org/Graphics/SVG/1.1/DTD/svg11.dtd'><svg height="100%" style="fill-rule:evenodd;clip-rule:evenodd;stroke-linejoin:round;stroke-miterlimit:1.41421;" version="1.1" viewBox="0 0 397 347" width="100%" xml:space="preserve" xmlns="http://www.w3.org/2000/svg" xmlns:serif="http://www.serif.com/" xmlns:xlink="http://www.w3.org/1999/xlink"><rect height="346.576" id="_19.-Site-cloning" style="fill:none;" width="395.345" x="0.987" y="0.322"/><g id="Group-1-copy"><path d="M381.724,125.917c0,-8.278 -6.722,-15 -15,-15l-250.915,0c-8.279,0 -15,6.722 -15,15l0,193.652c0,8.278 6.721,15 15,15l250.915,0c8.278,0 15,-6.722 15,-15l0,-193.652Z" id="Rounded-Rectangle-1-copy-3" style="fill:#cce6ff;fill-opacity:0.160784;"/><path d="M360.149,99.582c0,-8.279 -6.722,-15 -15,-15l-247.944,0c-8.279,0 -15,6.721 -15,15l0,191.22c0,8.279 6.721,15 15,15l247.944,0c8.278,0 15,-6.721 15,-15l0,-191.22Z" id="Rounded-Rectangle-1-copy-2" style="fill:url(#_Linear1);"/><path d="M95.38,127.039l248.555,0l0,156.355c0,4.774 -3.87,8.644 -8.644,8.644l-228.026,0c-6.564,0 -11.885,-5.321 -11.885,-11.885l0,-153.114Z" id="Rounded-Rectangle-2-copy" style="fill:#fff;"/><clipPath id="_clip2"><path d="M95.38,127.039l248.555,0l0,156.355c0,4.774 -3.87,8.644 -8.644,8.644l-228.026,0c-6.564,0 -11.885,-5.321 -11.885,-11.885l0,-153.114Z" id="Rounded-Rectangle-2-copy1"/></clipPath><g clip-path="url(#_clip2)"><rect height="41.428" id="Rectangle-1-copy" style="fill:#e5f1ff;" width="199.747" x="115.935" y="139.009"/><rect height="34.473" id="Rectangle-2-copy-5" style="fill:#e5f1ff;" width="63.847" x="117.522" y="189.013"/><rect height="42.002" id="Rectangle-2-copy-4" style="fill:#e5f1ff;" width="134.684" x="117.522" y="237.464"/><rect height="42.002" id="Rectangle-2-copy-3" style="fill:#e5f1ff;" width="54.866" x="260.309" y="237.464"/><rect height="12.358" id="Rectangle-3-copy" style="fill:#e5f1ff;" width="55.373" x="190.587" y="189.249"/><rect height="13.235" id="Rectangle-4-copy" style="fill:#e5f1ff;" width="125.703" x="190.114" y="210.419"/></g><circle cx="128.208" cy="104.924" id="Ellipse-1-copy-5" r="7.074" style="fill:#0084ff;"/><circle cx="107.849" cy="104.924" id="Ellipse-1-copy-4" r="7.074" style="fill:#55d7ff;"/><circle cx="148.534" cy="104.924" id="Ellipse-1-copy-3" r="7.074" style="fill:#0bbc00;"/><path d="M300.691,104.452c0,-3.587 -2.913,-6.5 -6.5,-6.5l-68.033,0c-3.588,0 -6.5,2.913 -6.5,6.5l0,1.046c0,3.587 2.912,6.5 6.5,6.5l68.033,0c3.587,0 6.5,-2.913 6.5,-6.5l0,-1.046Z" id="Rounded-Rectangle-3-copy" style="fill:#e5f1ff;"/><path d="M345.698,104.398c0,-3.614 -2.934,-6.547 -6.547,-6.547l-9.022,0c-3.613,0 -6.547,2.933 -6.547,6.547l0,1.053c0,3.613 2.934,6.547 6.547,6.547l9.022,0c3.613,0 6.547,-2.934 6.547,-6.547l0,-1.053Z" id="Rounded-Rectangle-3-copy-3" style="fill:#e5f1ff;"/></g><g id="Group-1"><path d="M344.989,77.297c0,-8.278 -6.722,-15 -15,-15l-250.915,0c-8.279,0 -15,6.722 -15,15l0,193.652c0,8.279 6.721,15 15,15l250.915,0c8.278,0 15,-6.721 15,-15l0,-193.652Z" id="Rounded-Rectangle-1-copy-31" style="fill:#cce6ff;fill-opacity:0.160784;"/><path d="M330.977,63.927c0,-8.279 -6.722,-15 -15,-15l-247.944,0c-8.279,0 -15,6.721 -15,15l0,191.22c0,8.279 6.721,15 15,15l247.944,0c8.278,0 15,-6.721 15,-15l0,-191.22Z" id="Rounded-Rectangle-1-copy-21" style="fill:url(#_Linear3);"/><path d="M66.209,91.384l248.554,0l0,156.356c0,4.773 -3.87,8.643 -8.644,8.643l-228.026,0c-6.563,0 -11.884,-5.321 -11.884,-11.885l0,-153.114Z" id="Rounded-Rectangle-2-copy2" style="fill:#fff;"/><clipPath id="_clip4"><path d="M66.209,91.384l248.554,0l0,156.356c0,4.773 -3.87,8.643 -8.644,8.643l-228.026,0c-6.563,0 -11.884,-5.321 -11.884,-11.885l0,-153.114Z" id="Rounded-Rectangle-2-copy3"/></clipPath><g clip-path="url(#_clip4)"><rect height="41.428" id="Rectangle-1-copy1" style="fill:#e5f1ff;" width="199.747" x="86.763" y="103.354"/><rect height="34.473" id="Rectangle-2-copy-51" style="fill:#e5f1ff;" width="63.847" x="88.35" y="153.358"/><rect height="42.002" id="Rectangle-2-copy-41" style="fill:#e5f1ff;" width="134.684" x="88.35" y="201.809"/><rect height="42.002" id="Rectangle-2-copy-31" style="fill:#e5f1ff;" width="54.866" x="231.137" y="201.809"/><rect height="12.358" id="Rectangle-3-copy1" style="fill:#e5f1ff;" width="55.373" x="161.415" y="153.595"/><rect height="13.235" id="Rectangle-4-copy1" style="fill:#e5f1ff;" width="125.703" x="160.942" y="174.765"/></g><circle cx="99.036" cy="69.27" id="Ellipse-1-copy-51" r="7.074" style="fill:#0084ff;"/><circle cx="78.677" cy="69.27" id="Ellipse-1-copy-41" r="7.074" style="fill:#55d7ff;"/><circle cx="119.362" cy="69.27" id="Ellipse-1-copy-31" r="7.074" style="fill:#0bbc00;"/><path d="M271.519,68.797c0,-3.587 -2.913,-6.5 -6.5,-6.5l-68.033,0c-3.588,0 -6.5,2.913 -6.5,6.5l0,1.046c0,3.588 2.912,6.5 6.5,6.5l68.033,0c3.587,0 6.5,-2.912 6.5,-6.5l0,-1.046Z" id="Rounded-Rectangle-3-copy1" style="fill:#e5f1ff;"/><path d="M316.526,68.743c0,-3.613 -2.934,-6.547 -6.547,-6.547l-9.022,0c-3.613,0 -6.546,2.934 -6.546,6.547l0,1.053c0,3.614 2.933,6.547 6.546,6.547l9.022,0c3.613,0 6.547,-2.933 6.547,-6.547l0,-1.053Z" id="Rounded-Rectangle-3-copy-31" style="fill:#e5f1ff;"/></g><path d="M308.254,47.045c0,-8.279 -6.722,-15 -15,-15l-250.915,0c-8.279,0 -15,6.721 -15,15l0,193.651c0,8.279 6.721,15 15,15l250.915,0c8.278,0 15,-6.721 15,-15l0,-193.651Z" id="Rounded-Rectangle-1-copy" style="fill:#cce6ff;fill-opacity:0.160784;"/><path d="M294.242,33.675c0,-8.279 -6.722,-15 -15,-15l-247.944,0c-8.279,0 -15,6.721 -15,15l0,191.22c0,8.279 6.721,15 15,15l247.944,0c8.278,0 15,-6.721 15,-15l0,-191.22Z" id="Rounded-Rectangle-1" style="fill:url(#_Linear5);"/><path d="M29.474,61.132l248.554,0l0,156.355c0,4.774 -3.87,8.644 -8.644,8.644l-228.026,0c-6.563,0 -11.884,-5.321 -11.884,-11.885l0,-153.114Z" id="Rounded-Rectangle-2" style="fill:#fff;"/><clipPath id="_clip6"><path d="M29.474,61.132l248.554,0l0,156.355c0,4.774 -3.87,8.644 -8.644,8.644l-228.026,0c-6.563,0 -11.884,-5.321 -11.884,-11.885l0,-153.114Z"/></clipPath><g clip-path="url(#_clip6)"><rect height="41.428" id="Rectangle-1" style="fill:#e5f1ff;" width="230.203" x="40.669" y="73.102"/><rect height="34.473" id="Rectangle-2" style="fill:#e5f1ff;" width="73.583" x="42.498" y="123.106"/><rect height="42.002" id="Rectangle-2-copy" style="fill:#e5f1ff;" width="155.22" x="42.498" y="171.557"/><rect height="42.002" id="Rectangle-2-copy-2" style="fill:#e5f1ff;" width="63.232" x="207.057" y="171.557"/><rect height="12.358" id="Rectangle-3" style="fill:#e5f1ff;" width="63.816" x="126.704" y="123.342"/><rect height="13.235" id="Rectangle-4" style="fill:#e5f1ff;" width="144.869" x="126.159" y="144.512"/></g><circle cx="62.301" cy="39.017" id="Ellipse-1" r="7.074" style="fill:#0084ff;"/><circle cx="41.942" cy="39.017" id="Ellipse-1-copy" r="7.074" style="fill:#55d7ff;"/><circle cx="82.627" cy="39.017" id="Ellipse-1-copy-2" r="7.074" style="fill:#0bbc00;"/><path d="M234.784,38.545c0,-3.587 -2.913,-6.5 -6.5,-6.5l-68.033,0c-3.588,0 -6.5,2.913 -6.5,6.5l0,1.046c0,3.587 2.912,6.5 6.5,6.5l68.033,0c3.587,0 6.5,-2.913 6.5,-6.5l0,-1.046Z" id="Rounded-Rectangle-3" style="fill:#e5f1ff;"/><path d="M279.791,38.492c0,-3.614 -2.934,-6.548 -6.549,-6.548l-9.018,0c-3.614,0 -6.548,2.934 -6.548,6.548l0,1.05c0,3.614 2.934,6.549 6.548,6.549l9.018,0c3.615,0 6.549,-2.935 6.549,-6.549l0,-1.05Z" id="Rounded-Rectangle-3-copy-2" style="fill:#e5f1ff;"/><path d="M183.218,220.136c-2.62,0 -5.141,1.229 -6.13,2.983c-0.665,1.183 -0.556,2.512 0.333,4.061c3.318,5.769 6.008,12.205 8.858,19.019c3.206,7.666 6.519,15.595 11.152,23.715c5.839,10.241 8.777,15.956 10.171,18.832l42.302,-0.008c1.281,-2.341 3.7,-6.591 8.351,-14.653c9.398,-16.295 9.014,-32.935 9.009,-33.101l-0.037,-15.985c0,-0.121 0.006,-0.236 0.016,-0.354c0.023,-0.315 0.554,-8.133 -4.929,-9.376c-0.449,-0.102 -0.871,-0.152 -1.247,-0.152c-0.629,0 -2.526,0 -3.544,4.03c-0.185,1.321 -0.383,2.148 -0.383,2.148c-0.485,1.997 -2.402,3.279 -4.384,2.962c-1.997,-0.33 -3.409,-2.15 -3.251,-4.195c0.013,-0.181 0.095,-1.104 0.386,-2.375c0.469,-3.82 -0.033,-7.074 -1.355,-8.723c-0.518,-0.65 -1.477,-1.523 -3.806,-1.691c-3.115,-0.215 -5.244,0.338 -5.664,4.36l0.152,3.812c0.083,2.058 -1.406,3.838 -3.422,4.074c-2.007,0.281 -3.867,-1.13 -4.256,-3.156c-0.047,-0.236 -0.428,-2.315 -0.245,-4.916l-0.098,-2.467c-0.015,-0.381 0.026,-0.761 0.116,-1.128c0,0 0.639,-3.01 -0.729,-4.79c-1.147,-1.484 -3.613,-1.819 -5.481,-1.84l-0.003,0c-2.473,0 -4.754,0.619 -5.516,5.005l0.213,7.826c0.057,2.042 -1.424,3.788 -3.416,4.03c-2.002,0.275 -3.837,-1.104 -4.254,-3.102c-0.037,-0.191 -0.933,-4.585 -0.315,-9.247l-0.757,-27.833c-0.006,-0.126 -0.003,-0.25 0.005,-0.373c0.051,-0.973 -0.132,-3.911 -1.593,-5.506c-0.757,-0.823 -1.865,-1.237 -3.391,-1.256c-5.516,0 -5.836,6.398 -5.857,7.129l-0.561,48.003c-0.024,1.891 -1.361,3.5 -3.19,3.839c-1.819,0.322 -3.636,-0.695 -4.306,-2.459c-2.448,-6.445 -7.07,-7.142 -8.944,-7.142l0,0Z" id="Shape-1-copy-2" style="fill:#70d1ff;fill-opacity:0.529412;"/><path d="M181.751,212.129c-2.223,0 -4.36,1.039 -5.2,2.521c-0.563,0.999 -0.472,2.122 0.282,3.431c2.815,4.873 5.097,10.31 7.514,16.067c2.719,6.477 5.53,13.175 9.46,20.034c4.953,8.652 7.444,13.481 8.627,15.91l35.881,-0.006c1.086,-1.978 3.138,-5.569 7.084,-12.38c7.97,-13.766 7.645,-27.824 7.64,-27.964l-0.03,-13.504c0,-0.102 0.004,-0.199 0.013,-0.299c0.02,-0.266 0.47,-6.871 -4.181,-7.921c-0.38,-0.086 -0.739,-0.128 -1.058,-0.128c-0.533,0 -2.142,0 -3.005,3.404c-0.157,1.117 -0.326,1.814 -0.326,1.814c-0.411,1.688 -2.037,2.771 -3.718,2.503c-1.694,-0.279 -2.891,-1.816 -2.758,-3.544c0.011,-0.152 0.081,-0.932 0.328,-2.006c0.398,-3.228 -0.028,-5.977 -1.15,-7.369c-0.439,-0.55 -1.252,-1.288 -3.228,-1.429c-2.642,-0.182 -4.448,0.286 -4.804,3.683l0.129,3.221c0.07,1.739 -1.193,3.242 -2.902,3.442c-1.703,0.237 -3.281,-0.955 -3.611,-2.667c-0.04,-0.199 -0.363,-1.956 -0.208,-4.153l-0.083,-2.084c-0.013,-0.321 0.022,-0.643 0.099,-0.953c0,0 0.542,-2.542 -0.619,-4.046c-0.972,-1.254 -3.064,-1.537 -4.649,-1.555l-0.002,0c-2.098,0 -4.032,0.523 -4.679,4.228l0.181,6.612c0.048,1.725 -1.208,3.2 -2.898,3.404c-1.698,0.233 -3.255,-0.932 -3.608,-2.62c-0.031,-0.162 -0.792,-3.874 -0.267,-7.812l-0.643,-23.514c-0.004,-0.107 -0.002,-0.211 0.005,-0.315c0.043,-0.822 -0.112,-3.304 -1.351,-4.651c-0.643,-0.696 -1.582,-1.046 -2.876,-1.061c-4.68,0 -4.951,5.405 -4.968,6.022l-0.477,40.554c-0.019,1.597 -1.154,2.957 -2.706,3.243c-1.543,0.272 -3.084,-0.587 -3.652,-2.078c-2.076,-5.444 -5.997,-6.034 -7.586,-6.034l0,0Z" id="Shape-1-copy" style="fill:#fff;"/><path d="M200.346,276.757c-1.335,0 -2.537,-0.817 -3.042,-2.067c-0.037,-0.088 -1.738,-4.148 -9.186,-17.161c-4.133,-7.216 -7.158,-14.419 -9.825,-20.772c-2.332,-5.557 -4.533,-10.804 -7.138,-15.309c-1.937,-3.354 -2.048,-7.039 -0.31,-10.114c2.017,-3.566 6.296,-5.87 10.906,-5.87c2.743,0 5.285,0.771 7.475,2.196l0.371,-31.342c0.114,-4.377 2.649,-12.565 11.438,-12.565c3.313,0.048 5.951,1.165 7.829,3.229c3.125,3.435 3.123,8.288 3.077,9.413l0.383,14.039c1.422,-0.627 3.048,-0.95 4.854,-0.95c4.609,0.051 7.909,1.453 9.975,4.177c0.468,0.614 0.837,1.252 1.125,1.894c1.712,-0.78 3.688,-1.121 6.107,-0.941c3.3,0.234 6.019,1.57 7.866,3.862c0.857,1.07 1.469,2.266 1.895,3.505c1.782,-0.802 3.878,-0.977 6.124,-0.47c8.126,1.834 9.646,10.419 9.315,14.849l0.029,13.274c0.017,0.556 0.378,16.041 -8.542,31.444c-6.084,10.509 -7.422,12.981 -7.713,13.544c-0.124,0.33 -0.306,0.644 -0.537,0.928c-0.665,0.808 -1.701,1.276 -2.73,1.201l-39.746,0.006l0,0Zm-18.595,-64.628c-2.223,0 -4.36,1.039 -5.2,2.521c-0.563,0.999 -0.472,2.122 0.282,3.431c2.815,4.873 5.097,10.31 7.514,16.067c2.719,6.477 5.53,13.175 9.46,20.034c4.953,8.652 7.444,13.481 8.627,15.91l35.881,-0.006c1.086,-1.978 3.138,-5.569 7.084,-12.38c7.97,-13.766 7.645,-27.824 7.64,-27.964l-0.03,-13.504c0,-0.102 0.004,-0.199 0.013,-0.299c0.02,-0.266 0.47,-6.871 -4.181,-7.921c-0.38,-0.086 -0.739,-0.128 -1.058,-0.128c-0.533,0 -2.142,0 -3.005,3.404c-0.157,1.117 -0.326,1.814 -0.326,1.814c-0.411,1.688 -2.037,2.771 -3.718,2.503c-1.694,-0.279 -2.891,-1.816 -2.758,-3.544c0.011,-0.152 0.081,-0.932 0.328,-2.006c0.398,-3.228 -0.028,-5.977 -1.15,-7.369c-0.439,-0.55 -1.252,-1.288 -3.228,-1.429c-2.642,-0.182 -4.448,0.286 -4.804,3.683l0.129,3.221c0.07,1.739 -1.193,3.242 -2.902,3.442c-1.703,0.237 -3.281,-0.955 -3.611,-2.667c-0.04,-0.199 -0.363,-1.956 -0.208,-4.153l-0.083,-2.084c-0.013,-0.321 0.022,-0.643 0.099,-0.953c0,0 0.542,-2.542 -0.619,-4.046c-0.972,-1.254 -3.064,-1.537 -4.649,-1.555l-0.002,0c-2.098,0 -4.032,0.523 -4.679,4.228l0.181,6.612c0.048,1.725 -1.208,3.2 -2.898,3.404c-1.698,0.233 -3.255,-0.932 -3.608,-2.62c-0.031,-0.162 -0.792,-3.874 -0.267,-7.812l-0.643,-23.514c-0.004,-0.107 -0.002,-0.211 0.005,-0.315c0.043,-0.822 -0.112,-3.304 -1.351,-4.651c-0.643,-0.696 -1.582,-1.046 -2.876,-1.061c-4.68,0 -4.951,5.405 -4.968,6.022l-0.477,40.554c-0.019,1.597 -1.154,2.957 -2.706,3.243c-1.543,0.272 -3.084,-0.587 -3.652,-2.078c-2.076,-5.444 -5.997,-6.034 -7.586,-6.034l0,0Z" id="Shape-1" style="fill:#0084ff;"/><defs><linearGradient gradientTransform="matrix(1.48979e-14,243.301,-243.301,1.48979e-14,354.038,171.354)" gradientUnits="userSpaceOnUse" id="_Linear1" x1="0" x2="1" y1="0" y2="0"><stop offset="0" style="stop-color:#eff6ff;stop-opacity:1"/><stop offset="1" style="stop-color:#c3daf6;stop-opacity:1"/></linearGradient><linearGradient gradientTransform="matrix(1.58475e-14,258.809,-258.809,1.58475e-14,325.022,101.826)" gradientUnits="userSpaceOnUse" id="_Linear3" x1="0" x2="1" y1="0" y2="0"><stop offset="0" style="stop-color:#dfefff;stop-opacity:1"/><stop offset="1" style="stop-color:#8cc3fc;stop-opacity:1"/></linearGradient><linearGradient gradientTransform="matrix(1.18685e-14,193.827,-193.827,1.18685e-14,251.159,143.384)" gradientUnits="userSpaceOnUse" id="_Linear5" x1="0" x2="1" y1="0" y2="0"><stop offset="0" style="stop-color:#cce6ff;stop-opacity:1"/><stop offset="1" style="stop-color:#1d98ff;stop-opacity:1"/></linearGradient></defs></svg>